{"title":"Andre Techine - The Bronte Sisters (1979)","uid":9940979,"size":5868126906,"categoryP":"video","categoryS":"hd___movies","magnet":"?xt=urn:btih:6a99b9d21c908b9c80368d1fed101aa91854b58e&amp;dn=Andre+Techine+-+The+Bronte+Sisters+%281979%29&amp;tr=udp%3A%2F%2Ftracker.openbittorrent.com%3A80&amp;tr=udp%3A%2F%2Fopen.demonii.com%3A1337&amp;tr=udp%3A%2F%2Ftracker.coppersurfer.tk%3A6969&amp;tr=udp%3A%2F%2Fexodus.desync.com%3A6969","seeders":1,"leechers":3,"uploader":"moonflux","files":1,"time":1397241446,"description":"Unique ID                        : 202456747299186650259409470558229952151 (0x984FC04F14A2BEA3A8295E39EFB2F697)\nComplete name                    : The.Bronte.Sisters.1979.720p.BluRay.x264-CiNEFiLE.mkv\nFormat                           : Matroska\nFormat version                   : Version 2\nFile size                        : 5.47 GiB\nDuration                         : 1h 59mn\nOverall bit rate                 : 6 528 Kbps\nEncoded date                     : UTC 2012-05-24 17:00:23\nWriting application              : mkvmerge v5.5.0 ('Healer') built on Apr  6 2012 21:43:24\nWriting library                  : libebml v1.2.3 + libmatroska v1.3.0\n\nVideo\nID                               : 1\nFormat                           : AVC\nFormat/Info                      : Advanced Video Codec\nFormat profile                   : &lt;a class=&quot;__cf_email__&quot; href=&quot;/cdn-cgi/l/email-protection&quot; data-cfemail=&quot;2d65444a456d6119031c&quot;&gt;[email&amp;#160;protected]&lt;/a&gt;&lt;script cf-hash='f9e31' type=&quot;text/javascript&quot;&gt;\n/* &lt;![CDATA[ */!function(){try{var t=&quot;currentScript&quot;in document?document.currentScript:function(){for(var t=document.getElementsByTagName(&quot;script&quot;),e=t.length;e--;)if(t[e].getAttribute(&quot;cf-hash&quot;))return t[e]}();if(t&amp;&amp;t.previousSibling){var e,r,n,i,c=t.previousSibling,a=c.getAttribute(&quot;data-cfemail&quot;);if(a){for(e=&quot;&quot;,r=parseInt(a.substr(0,2),16),n=2;a.length-n;n+=2)i=parseInt(a.substr(n,2),16)^r,e+=String.fromCharCode(i);e=document.createTextNode(e),c.parentNode.replaceChild(e,c)}}}catch(u){}}();/* ]]&gt; */&lt;/script&gt;\nFormat settings, CABAC           : Yes\nFormat settings, ReFrames        : 5 frames\nFormat settings, GOP             : M=4, N=27\nCodec ID                         : V_MPEG4/ISO/AVC\nDuration                         : 1h 59mn\nBit rate                         : 5 018 Kbps\nWidth                            : 1 200 pixels\nHeight                           : 720 pixels\nDisplay aspect ratio             : 1.667\nFrame rate                       : 24.000 fps\nColor space                      : YUV\nChroma subsampling               : 4:2:0\nBit depth                        : 8 bits\nScan type                        : Progressive\nBits/(Pixel*Frame)               : 0.242\nStream size                      : 4.09 GiB (75%)\nWriting library                  : x264 core 124 r2197 69a0443\nEncoding settings                : cabac=1 / ref=5 / deblock=1:0:0 / analyse=0x3:0x113 / me=umh / subme=7 / psy=1 / psy_rd=1.00:0.00 / mixed_ref=1 / me_range=16 / chroma_me=1 / trellis=1 / 8x8dct=1 / cqm=0 / deadzone=21,11 / fast_pskip=0 / chroma_qp_offset=-2 / threads=18 / sliced_threads=0 / nr=0 / decimate=1 / interlaced=0 / bluray_compat=0 / constrained_intra=0 / bframes=3 / b_pyramid=2 / b_adapt=1 / b_bias=0 / direct=1 / weightb=1 / open_gop=0 / weightp=2 / keyint=250 / keyint_min=24 / scenecut=40 / intra_refresh=0 / rc_lookahead=40 / rc=2pass / mbtree=1 / bitrate=5018 / ratetol=1.0 / qcomp=0.60 / qpmin=0 / qpmax=69 / qpstep=4 / cplxblur=20.0 / qblur=0.5 / ip_ratio=1.40 / aq=1:1.00\n\nAudio\nID                               : 2\nFormat                           : DTS\nFormat/Info                      : Digital Theater Systems\nCodec ID                         : A_DTS\nDuration                         : 1h 59mn\nBit rate mode                    : Constant\nBit rate                         : 1 510 Kbps\nChannel(s)                       : 2 channels\nChannel positions                : Front: L R\nSampling rate                    : 48.0 KHz\nBit depth                        : 24 bits\nCompression mode                 : Lossy\nStream size                      : 1.26 GiB (23%)\nLanguage                         : French\n\nText\nID                               : 3\nFormat                           : UTF-8\nCodec ID                         : S_TEXT/UTF8\nCodec ID/Info                    : UTF-8 Plain Text\nLanguage                         : English","torrent":{"xt":"urn:btih:6a99b9d21c908b9c80368d1fed101aa91854b58e","amp;dn":"Andre+Techine+-+The+Bronte+Sisters+%281979%29","amp;tr":["udp%3A%2F%2Ftracker.openbittorrent.com%3A80","udp%3A%2F%2Fopen.demonii.com%3A1337","udp%3A%2F%2Ftracker.coppersurfer.tk%3A6969","udp%3A%2F%2Fexodus.desync.com%3A6969"],"infoHash":"6a99b9d21c908b9c80368d1fed101aa91854b58e","infoHashBuffer":{"type":"Buffer","data":[106,153,185,210,28,144,139,156,128,54,141,31,237,16,26,169,24,84,181,142]},"announce":[],"urlList":[]}}